<?xml version="1.0" encoding="utf-8"?>
<!-- Generator: Adobe Illustrator 22.0.1, SVG Export Plug-In . SVG Version: 6.00 Build 0)  -->
<svg version="1.1" id="svg2811" xmlns="http://www.w3.org/2000/svg" xmlns:xlink="http://www.w3.org/1999/xlink" x="0px" y="0px"
	 viewBox="0 0 448 180" style="enable-background:new 0 0 448 180;" xml:space="preserve">
<style type="text/css">
	.st0{clip-path:url(#SVGID_2_);}
	.st1{enable-background:new    ;}
</style>
<title>Apple-type</title>
<g>
	<g>
		<defs>
			<rect id="SVGID_1_" x="1.5" y="13.9" width="124" height="152.2"/>
		</defs>
		<clipPath id="SVGID_2_">
			<use xlink:href="#SVGID_1_"  style="overflow:visible;"/>
		</clipPath>
		<g class="st0">
			<path id="path188" d="M105,94.8c-0.2-19.3,15.7-28.5,16.5-29c-9-13.1-22.9-14.9-27.8-15.1c-11.8-1.2-23.1,7-29.1,7
				s-15.3-6.8-25.1-6.6c-12.9,0.2-24.8,7.5-31.5,19.1c-13.4,23.3-3.4,57.8,9.7,76.7c6.4,9.2,14,19.6,24,19.3
				c9.7-0.4,13.3-6.2,24.9-6.2s14.9,6.2,25.1,6.1c10.4-0.2,16.9-9.4,23.3-18.7c7.3-10.7,10.4-21.1,10.5-21.7
				C125.2,125.4,105.2,117.8,105,94.8"/>
		</g>
	</g>
</g>
<path id="path190" d="M85.9,38.2c5.3-6.4,8.9-15.4,7.9-24.3c-7.7,0.3-16.9,5.1-22.4,11.5c-4.9,5.7-9.2,14.8-8.1,23.5
	C71.8,49.6,80.5,44.6,85.9,38.2"/>
<g class="st1">
	<path d="M172.2,113.7l-8.8,26.7H152l28.8-84.9h13.2l29,84.9h-11.7l-9.1-26.7H172.2z M200,105.1l-8.3-24.4
		c-1.9-5.5-3.1-10.6-4.4-15.5H187c-1.3,5-2.6,10.2-4.3,15.4l-8.3,24.6L200,105.1L200,105.1z"/>
</g>
<g class="st1">
	<path d="M231.6,99.3c0-7.8-0.2-14.1-0.5-19.9h10l0.5,10.5h0.2c4.5-7.4,11.7-11.8,21.7-11.8c14.7,0,25.8,12.5,25.8,31
		c0,21.9-13.3,32.7-27.7,32.7c-8.1,0-15.1-3.5-18.8-9.6h-0.2v33.1h-11V99.3z M242.6,115.6c0,1.6,0.2,3.1,0.5,4.5
		c2,7.7,8.7,13,16.6,13c11.7,0,18.5-9.6,18.5-23.6c0-12.2-6.4-22.7-18.1-22.7c-7.6,0-14.6,5.4-16.8,13.7c-0.4,1.4-0.8,3-0.8,4.5
		L242.6,115.6L242.6,115.6z"/>
	<path d="M300.8,99.3c0-7.8-0.2-14.1-0.5-19.9h10l0.5,10.5h0.2c4.5-7.4,11.7-11.8,21.7-11.8c14.7,0,25.8,12.5,25.8,31
		c0,21.9-13.3,32.7-27.7,32.7c-8.1,0-15.1-3.5-18.8-9.6h-0.2v33.1h-11V99.3z M311.7,115.6c0,1.6,0.2,3.1,0.5,4.5
		c2,7.7,8.7,13,16.6,13c11.7,0,18.5-9.6,18.5-23.6c0-12.2-6.4-22.7-18.1-22.7c-7.6,0-14.6,5.4-16.8,13.7c-0.4,1.4-0.8,3-0.8,4.5
		L311.7,115.6L311.7,115.6z"/>
	<path d="M369.9,51H381v89.4h-11.1V51z"/>
	<path d="M403.3,111.9c0.2,15,9.8,21.2,20.9,21.2c7.9,0,12.7-1.4,16.9-3.1l1.9,7.9c-3.9,1.8-10.6,3.8-20.3,3.8
		c-18.8,0-30-12.3-30-30.7s10.8-32.9,28.6-32.9c19.9,0,25.2,17.5,25.2,28.7c0,2.3-0.2,4-0.4,5.2H403.3z M435.8,104
		c0.1-7-2.9-18-15.4-18c-11.2,0-16.1,10.3-17,18H435.8z"/>
</g>
</svg>
