<?xml version="1.0" encoding="utf-8"?>
<!-- Generator: Adobe Illustrator 22.0.1, SVG Export Plug-In . SVG Version: 6.00 Build 0)  -->
<svg version="1.1" id="图层_1" xmlns:rdf="http://www.w3.org/1999/02/22-rdf-syntax-ns#" xmlns:svg="http://www.w3.org/2000/svg"
	 xmlns="http://www.w3.org/2000/svg" xmlns:xlink="http://www.w3.org/1999/xlink" x="0px" y="0px" viewBox="0 0 448 180"
	 style="enable-background:new 0 0 448 180;" xml:space="preserve">
<style type="text/css">
	.st0{fill:#E53238;}
	.st1{fill:#0064D2;}
	.st2{fill:#F5AF02;}
	.st3{fill:#86B817;}
</style>
<path id="e" class="st0" d="M57.9,39.8C26.3,39.8,0,53.1,0,93.2C0,125,17.7,145,58.7,145c48.3,0,51.4-31.6,51.4-31.6H86.7
	c0,0-5,17-29.4,17c-19.9,0-34.2-13.3-34.2-32h89.5V86.8C112.6,68.3,100.8,39.8,57.9,39.8L57.9,39.8z M57.1,54.8
	c18.9,0,31.8,11.5,31.8,28.7H23.7C23.7,65.2,40.5,54.8,57.1,54.8z"/>
<path id="b" class="st1" d="M112.6,1v123.9c0,7-0.5,16.9-0.5,16.9h22.3c0,0,0.8-7.1,0.8-13.6c0,0,11,17.1,41,17.1
	c31.6,0,53-21.7,53-52.9c0-29-19.7-52.3-53-52.3c-31.2,0-40.8,16.7-40.8,16.7V1L112.6,1z M170.5,55.5c21.4,0,35.1,15.8,35.1,37
	c0,22.7-15.8,37.6-34.9,37.6c-22.9,0-35.2-17.7-35.2-37.4C135.4,74.3,146.5,55.5,170.5,55.5z"/>
<path id="a" class="st2" d="M284.7,39.8c-47.5,0-50.6,25.8-50.6,29.9h23.7c0,0,1.2-15.1,25.3-15.1c15.6,0,27.7,7.1,27.7,20.7v4.9
	h-27.7c-36.8,0-56.3,10.7-56.3,32.4c0,21.3,18,32.9,42.3,32.9c33.1,0,43.8-18.2,43.8-18.2c0,7.2,0.6,14.3,0.6,14.3h21
	c0,0-0.8-8.8-0.8-14.5V78.5C333.7,46.6,307.7,39.8,284.7,39.8L284.7,39.8z M310.8,94.9v6.5c0,8.4-5.3,29.4-36.2,29.4
	c-16.9,0-24.2-8.4-24.2-18.1C250.5,95,274.9,94.9,310.8,94.9L310.8,94.9z"/>
<path id="y" class="st3" d="M321,43.9h26.6l38.2,75.9l38.1-75.9H448L378.6,179h-25.3l20-37.7L321,43.9z"/>
</svg>
