<?xml version="1.0" encoding="utf-8"?>
<!-- Generator: Adobe Illustrator 22.0.0, SVG Export Plug-In . SVG Version: 6.00 Build 0)  -->
<svg version="1.1" id="图层_1" xmlns="http://www.w3.org/2000/svg" xmlns:xlink="http://www.w3.org/1999/xlink" x="0px" y="0px"
	 viewBox="0 0 1667 564" style="enable-background:new 0 0 1667 564;" xml:space="preserve">
<style type="text/css">
	.st0{fill:#E1251B;}
</style>
<path class="st0" d="M371.7,33.8c50.5-8,102.7-9.3,152.8,2c16.4,4,33.1,8.9,47.1,18.8c12.5,9.7,24.2,22.1,28.4,37.8
	c4.1,15.4,2.1,31.4,0.7,47c-4.1,37.7-18.2,73.7-36.5,106.7c-18,32.1-41.5,61.2-70,84.6c-23.5,19.2-50.7,34.3-80.3,41.6
	c-0.1,56,0,112,0,167.9c-8.9,0-17.7,0-26.6,0c-2.3-17.2-5-34.4-10.4-50.9c-2-4.9-3.6-10.7-8.1-14c-2.4-0.1-4,2-5.5,3.7
	c-4.1,5.2-6.8,11.4-9.3,17.5c-5.6,14.1-9.3,28.8-12.1,43.6l-0.5,0.4c-8.2,0-16.3,0-24.5,0c0.4-18.4,0.9-36.8,1.3-55.2
	c-5,3.4-9.1,7.9-12.9,12.5c-10.6,13.7-20.2,28.2-30.1,42.4c-10.1,0-20.3,0-30.4,0c12.9-24.4,26-48.7,38.9-73.1
	c-7.3-2.6-14.2-7.2-17.8-14.3c-5.1-9.4-4.3-20.6-1.9-30.7c0.1,0.2,0.4,0.6,0.6,0.9c1.4,8.3,3.4,17.3,9.6,23.3c5.1,4,12.2,5.5,18.5,4
	c13.6-25.5,27.1-51,40.7-76.5c-7.6-1.9-15.5-3.3-23.1-5.5c-27.6-7.6-54-18.9-79-32.7c-27.1-15.1-52.9-33.1-75.2-54.8
	c-14-13.9-26.5-29.3-36.8-46.1c0.4,12.9-0.3,26-4.2,38.3c-5,13.9-13.8,26.6-25.6,35.6c-7.4,5.7-15.7,10.3-24.3,14.2
	c-9.7,4.8-19.5,10.3-30.5,11c-11.3,0.6-21.5-6.7-27.3-15.9c-6.6-10.8-5.5-24.2-2.5-36c4.4-15.5,11.3-30.3,18.6-44.7
	c4.7-8.4,7.9-17.5,11.1-26.5c6.5-17.9,10.4-36.7,15.5-55c1.8-4,2.9-8.3,5.4-12c4.9-7.6,14-12.9,23.3-11.4
	c9.2,1.6,17.4,6.4,25.2,11.4c7,4.1,13.8,8.5,20.6,12.8c8.9-13.1,20.6-24.3,33-34.1c31.6-24.6,68-42.3,104.9-57.4
	C297.6,50.3,334.3,39.7,371.7,33.8 M266.9,76.7c-35,14.3-69.5,31-99.9,53.7c-11.7,8.9-22.9,18.9-31.6,30.9c-3,3.8-4.9,8.3-6.6,12.7
	c-0.3-0.1-0.8-0.3-1.1-0.4c-11.5-7.1-22.7-14.6-34.2-21.6c-5.2-3.1-10.6-6-16.5-7.2c-4.5-0.9-9.1,1.3-11.8,4.8
	c-2.6,2.8-3.3,6.6-4.8,9.9c-4.8,18.3-9.2,36.8-15.2,54.8c-3.1,10.6-7.4,20.9-12.6,30.7c-5.3,10.3-10.1,20.9-14,31.7
	c-3.1,8.4-5.5,17.5-4.3,26.5c0.9,6.7,5.6,12.3,11.2,15.7c4.2,2.5,9.3,2.5,13.9,1.3c9-2.4,17.1-7.3,25.6-11
	c9.5-4.8,18.8-10.5,26-18.5c8-9.1,14.3-20.2,15.8-32.3c1.8-12.7,1.5-25.7,0.4-38.5c-0.7-9.9-3.6-19.4-5.2-29.1
	c4.5,3.2,9.2,6.4,13.7,9.6c3.5,10.6,8.8,20.5,14.8,29.9c9.5,14.8,20.8,28.5,33.3,41c22,21.4,47.4,39.1,74.3,53.9
	c24.3,13.3,50.1,24.2,77,31.3c20.3,5.6,41.5,8.1,62.6,7.7c17.3-0.7,34.5-3.8,50.8-9.7c18.7-6.7,36.2-16.6,52.1-28.6
	c24.4-18.4,45.3-41.3,62.2-66.7c4.2-6.8,9-13.3,12.5-20.5l0.2-0.1c4.7-7.4,7.8-15.6,11.6-23.4l0.2-1.4c2.1-3.2,3.2-7,4.8-10.5
	c9.7-23.6,16.6-48.5,18.4-74c0.9-12.2,2.1-24.9-2.1-36.6c-3.4-9.4-10.3-16.9-17.7-23.4c-2.2-1.7-4.3-3.5-6.7-4.9
	c-16.7-9.5-35.6-14.8-54.3-18.6c-0.5-1.1-2.5,0.3-3.4-0.6c-16.4-2.5-32.9-4-49.5-4.4C391.9,39.5,326.9,52,266.9,76.7 M342.2,381.6
	c-25.6,48.3-51.4,96.5-77,144.8c1.5,0,3.1,0,4.6,0c7.3-10.3,14.6-20.8,22-31c6.9-9.7,14.7-19.3,25.4-25c3.9-2.3,9-2.4,13.1-1.4
	c-0.4,19.3-0.9,38.5-1.4,57.8c1.3,0,2.7,0,4,0c3.4-15.3,7.5-30.5,14.2-44.7c3.1-6.3,6.7-12.6,12.2-17c3.5-2.8,8.3-4.3,12.7-2.9
	c4.5,1.5,7.6,5.3,10,9.2c3.8,6.3,6.1,13.4,8.1,20.5c3.2,11.5,5.6,23.1,7,34.9c1.7,0.1,3.3,0.2,5,0.3c0-48.8,0.1-97.5,0-146.3
	C382.9,387.8,361.9,385.2,342.2,381.6z"/>
<path class="st0" d="M1293.2,93.4c22,0,44,0,66,0c-3.2,10.5-6.9,20.8-10,31.3c105.4,0,210.8-0.1,316.1,0
	c-0.1,13.6,0.1,27.3-0.1,40.9c-90.6-0.1-181.2,0-271.8,0c-19.6,0.2-39.3-0.4-58.9,0.3c-14.4,44.1-29.3,88-43.7,132.1
	c35.8-0.1,71.6,0,107.5-0.1c0-21.3-0.1-42.6,0-63.9c22,0,44,0,66,0c0.3,21.3-0.3,42.8,0.3,64c60.8-0.2,121.6-0.1,182.4-0.1
	c0,13.6,0,27.2,0,40.9c-60.9,0-121.7,0-182.6,0c0,32.4,0,64.8,0,97.2c-0.3,21-3.6,42.7-14.5,60.9c-8.7,14.6-22.6,25.6-38.3,31.8
	c-18,7.3-37.6,9.8-56.9,10.5c0-13,0-26.1,0-39.1c11.3-0.6,23.5-2.5,32.1-10.6c5.1-4.5,7.9-10.9,9.2-17.5c2.6-12.9,1.7-26.2,1.9-39.3
	c0-31.5,0-63,0-94.4c-64-0.1-128,0.2-192-0.1c20.7-57.7,41.4-115.4,61.9-173.1c-17.9,0-35.7,0-53.6,0c-8.2-0.2-16.6,0.5-24.7-0.3
	c0.2-13.3,0-26.5,0.1-39.8l0.3-0.7c30.6,0.1,61.3,0,91.9,0C1286.1,114.4,1289.2,103.7,1293.2,93.4z"/>
<path class="st0" d="M868.8,93.8c22,0,44.1,0,66.1,0c0,10.2,0.1,20.4-0.1,30.6c8.1,0.8,16.5,0.1,24.7,0.3
	c59.6,0.1,119.3-0.1,178.9,0.1c-0.3,13.6,0.3,27.3-0.3,40.9c-157.6-0.2-315.1,0-472.7-0.1c0-13.6,0-27.2,0-40.8
	c67.8,0,135.6,0,203.3,0C868.8,114.5,868.8,104.1,868.8,93.8z"/>
<path class="st0" d="M681.4,193.3c147,0,294,0,441,0c0,48.5,0,97.1,0,145.6c-61.6,0-123.2,0-184.8,0c-0.7,0.1-2.1,0.2-2.8,0.3
	c0.2,32.7,0,65.3,0.1,98c-0.3,19.2-3.3,38.9-12.3,56.1c-7.3,14-19.2,25.3-33.3,32.3c-19.8,9.9-42.2,13-64.2,13.7
	c0.2-13.1-0.3-26.3,0.3-39.3c13-0.1,27.7-3.5,35.7-14.7c6.6-10,6.9-22.6,7.3-34.2c0.1-36,0-71.9,0-107.9c-0.2-1.6,0.3-3.3-0.3-4.9
	c-57.7,0.2-115.4,0-173.1,0.1c-4.6-0.1-9.2,0.2-13.7-0.1C681.4,290,681.3,241.6,681.4,193.3 M745.4,234.2
	c0.1,21.3-0.2,42.6,0.1,63.9c104.4-0.1,208.8-0.1,313.2,0c0.2-21.3,0-42.6,0.1-63.9C954.3,234.1,849.9,234.2,745.4,234.2z"/>
<path class="st0" d="M721.5,380.7c22.1,0,44.2,0.1,66.4-0.1c-0.1,1.6-1.3,2.9-1.9,4.4c-27.6,51.5-55.3,102.9-82.7,154.5
	c-12.5,0.6-25.2,0.1-37.8,0.3c15.6-44.8,31.4-89.4,47.1-134.2C715.6,397.4,718.1,388.9,721.5,380.7z"/>
<path class="st0" d="M1015.5,381c22.3-0.4,44.7-0.1,67-0.2c16.3,46.4,32.6,92.8,48.9,139.2c2.1,6.6,5,13.2,6.7,19.8
	c-12.5-0.2-25,0.1-37.4-0.1C1072.3,486.8,1044,433.8,1015.5,381z"/>
<path class="st0" d="M1246,380.8c22.2,0,44.4,0.1,66.6,0c-8.3,16.6-17.5,32.7-26.1,49.1c-19.5,36.5-39.2,73-58.7,109.6
	c-12.5,0.8-25.2,0.1-37.8,0.3c16-45.9,32.2-91.7,48.3-137.6C1240.9,395.1,1243.1,387.8,1246,380.8z"/>
<path class="st0" d="M1543.2,380.8c22.1,0.1,44.2,0,66.3,0c18.7,52.9,37.1,105.9,55.9,158.7c-12.5,0.6-25.2,0.3-37.8,0.1
	c-28.1-52.8-56.5-105.5-84.7-158.2L1543.2,380.8z"/>
<path d="M477.2,56.4c8.1-6,18.2-8.7,28-10.6c1.4-0.5,2.9,0.1,4.3-0.1c18.7,3.9,37.5,9.2,54.3,18.6c2.4,1.4,4.5,3.3,6.7,4.9
	c-2.1,4.6-6.2,7.9-10.4,10.5c-10.8,6.3-23.4,8.6-35.7,9.5c-15.2,0.6-31.1-0.4-44.8-7.7c-4.5-2.6-9.2-6.3-9.8-11.8
	C469.1,64.2,473,59.4,477.2,56.4z"/>
<path d="M330,92.5c4.8-1.1,10.2-0.2,14.2,2.8c4.6,3.4,7.7,9,7.2,14.8c0.5,7.4-5.1,14.1-12,16.3c-5.8,2-12.7,0.6-17.1-3.7
	c-3.6-3.8-6.1-9.1-5.5-14.4C317.4,100.9,322.9,94.2,330,92.5z"/>
<path d="M321.7,166.5c3.1-1.5,7.4-0.6,9.3,2.5c11.3,17.7,27.6,31.7,45.4,42.4c17.9,10.7,37.6,18.2,57.9,22.6c29.4,6.5,60,5,89.2-1.8
	c15.4-3.7,30.6-9,43.5-18.4l-0.2,1.4c-3.8,7.8-7,16-11.6,23.4l-0.2,0.1c-13.2,5.9-27.3,9.8-41.6,12.4c-16.9,3.1-34.2,4.2-51.4,3.1
	c-27.6-1.4-55.1-8-80.1-20c-25-12-47.7-29.9-62.8-53.4C315.7,176.5,316.6,169.1,321.7,166.5z"/>
</svg>
