<?xml version="1.0" encoding="utf-8"?>
<!-- Generator: Adobe Illustrator 22.0.0, SVG Export Plug-In . SVG Version: 6.00 Build 0)  -->
<svg version="1.1" id="图层_1" xmlns="http://www.w3.org/2000/svg" xmlns:xlink="http://www.w3.org/1999/xlink" x="0px" y="0px"
	 viewBox="0 0 448 180" style="enable-background:new 0 0 448 180;" xml:space="preserve">
<style type="text/css">
	.st0{fill:#231815;}
	.st1{fill:#FF0036;}
</style>
<path class="st0" d="M120.5,136.4c0.2-0.1,0.3-0.1,0.5-0.2c0.1,0,0.3-0.1,0.5-0.1c0.3,0,0.6,0.1,0.9,0.2"/>
<path class="st0" d="M35.5,136.4c-0.7,0.4-1.3,1.1-1.9,2.2c-0.6,1.1-1.1,2.5-1.5,4.1c-0.4,1.6-0.8,3.5-1,5.5
	c-0.2,2.1-0.4,4.3-0.4,6.6c0,1.5,0.1,2.9,0.2,4.3c0.1,1.4,0.3,2.7,0.5,4h10.1c0.5-2.5,0.7-5.3,0.7-8.3c0-2.3-0.1-4.5-0.4-6.6
	c-0.2-2.1-0.6-3.9-1-5.5s-0.9-3-1.5-4.1s-1.2-1.8-1.9-2.2"/>
<path class="st0" d="M130.9,136.4c-0.7,0.4-1.3,1.1-1.8,2.2c-0.6,1.1-1.1,2.5-1.5,4.1s-0.8,3.5-1,5.5c-0.2,2.1-0.3,4.3-0.3,6.6
	c0,1.5,0,2.9,0.2,4.3s0.2,2.7,0.4,4H137c0.2-1.3,0.3-2.6,0.5-4s0.2-2.8,0.2-4.3c0-2.3-0.1-4.5-0.4-6.6c-0.2-2.1-0.6-3.9-1-5.5
	s-0.9-3-1.5-4.1c-0.5-1.1-1.2-1.8-1.8-2.2"/>
<path class="st0" d="M37.4,136.4c2.3,0.1,4.4,0.7,6.4,1.7s3.8,2.3,5.2,4c1.5,1.7,2.6,3.6,3.5,5.8c0.8,2.2,1.3,4.5,1.3,6.9
	c0,3-0.7,5.8-2,8.4h64.6c-1.3-2.6-1.9-5.4-1.9-8.4c0-2.5,0.4-4.8,1.3-6.9c0.8-2.2,2-4.1,3.5-5.8s3.2-3,5.2-4s4.1-1.6,6.4-1.7H37.4z
	 M89.1,153.2l-1.8,2.7c-0.4,0.5-0.8,1.1-1.2,1.7c-0.4,0.5-0.7,1-0.9,1.4c-0.1,0.1-0.2,0.2-0.3,0.3s-0.4,0.2-0.8,0.2
	s-0.6-0.1-0.7-0.2c-0.1-0.1-0.2-0.2-0.3-0.3c-0.3-0.4-0.6-0.9-1-1.4l-1.1-1.7l-1.8-2.7c-0.5-0.6-0.5-1.2-0.2-1.7
	c0.4-0.5,1-0.7,1.9-0.7h6.4c1,0,1.6,0.2,2,0.7S89.6,152.6,89.1,153.2z"/>
<path class="st0" d="M132.8,136.4c2.3,0.1,4.4,0.7,6.4,1.7s3.7,2.3,5.2,4s2.7,3.6,3.5,5.8s1.3,4.5,1.3,6.9c0,1.5-0.2,2.9-0.5,4.4
	c-0.3,1.4-0.8,2.7-1.5,4h15.3v-20.4h-0.1v-12.7V130v-0.5c0-1.8-0.2-3.7-0.3-5.9c-0.2-2.1-0.5-4.2-1-6.2s-1.2-3.9-2.1-5.5
	c-0.9-1.7-2-2.9-3.4-3.8c-1.6-1-3.1-1.4-4.6-1.1c-1.5,0.2-2.8,0.7-4.1,1.5c-1.2,0.7-2.2,1.5-3.1,2.4c-0.8,0.9-1.4,1.5-1.7,1.9
	c-2.1,2.5-4.2,5.1-6.4,7.7s-4.7,5-7.3,7.2c-2.7,2.2-5.6,4-8.8,5.4c-3.2,1.4-6.9,2.1-10.9,2.1h-3.9H84.2h-0.1H63.4h-3.8
	c-4.1,0-7.8-0.7-11-2.1c-3.2-1.4-6.1-3.2-8.8-5.4c-2.7-2.2-5.1-4.6-7.3-7.2c-2.2-2.6-4.4-5.2-6.5-7.7c-0.2-0.2-0.5-0.6-0.9-1.1
	c-0.5-0.5-1-1-1.6-1.6s-1.4-1.1-2.2-1.6c-0.8-0.5-1.7-0.9-2.6-1.2c-0.9-0.3-1.9-0.3-2.9-0.2c-1,0.1-2.1,0.5-3.1,1.1
	c-1.4,0.8-2.5,2.1-3.4,3.8c-0.8,1.7-1.5,3.5-2,5.5s-0.8,4.1-1,6.2c-0.2,2.1-0.3,4.1-0.3,5.9c0,0.1-0.1,0.2-0.1,0.5v0.1v12.7v20.4
	h15.3c-0.6-1.3-1.1-2.6-1.4-4s-0.5-2.8-0.5-4.4c0-2.5,0.4-4.8,1.3-6.9c0.8-2.2,2-4.1,3.5-5.8s3.2-3,5.2-4s4.1-1.6,6.4-1.7"/>
<path class="st0" d="M35.5,136.4c0.2-0.1,0.4-0.1,0.5-0.2c0.2,0,0.3-0.1,0.5-0.1s0.3,0,0.5,0.1c0.1,0,0.3,0.1,0.4,0.2"/>
<path class="st1" d="M157.4,101.2c-3.1,0-5.6-2.5-5.6-5.6v-62c0-3.1-2.6-5.7-5.6-5.7h-124c-3.1,0-5.6,2.5-5.6,5.7v62
	c0,3.1-2.5,5.6-5.6,5.6s-5.7-2.5-5.7-5.6v-62c0-9.3,7.6-16.9,16.9-16.9h123.9c9.3,0,16.9,7.6,16.9,16.9v62
	C163.1,98.7,160.6,101.2,157.4,101.2z"/>
<path class="st1" d="M84.2,84.3c-21.7,0-39.4-17.7-39.4-39.4c0-3.1,2.5-5.6,5.6-5.6s5.6,2.5,5.6,5.6c0,15.5,12.6,28.2,28.2,28.2
	s28.1-12.7,28.1-28.2c0-3.1,2.5-5.6,5.6-5.6s5.6,2.5,5.6,5.6C123.6,66.6,105.9,84.3,84.2,84.3z"/>
<path class="st1" d="M422.6,74h-59.1v55.3c0,12.5,6.5,20.5,20.5,20.5l0,0h58.6V93.6C442.6,81.4,436.9,74,422.6,74z M408.6,85.3h8.2
	c10.5,0,14.2,0,14.2,13.5v7.6h-22.4V85.3z M397.5,139h-6.8c-10.5,0-15.7-1.1-15.7-13.4c0,0,0-3.5,0-8.4h22.5V139L397.5,139z
	 M397.5,106.4H375c0-10.3,0-21,0-21.1h22.5V106.4L397.5,106.4z M408.6,139v-21.8H431v21.5c0,0.1,0,0.2,0,0.2L408.6,139L408.6,139z
	 M322.5,29.9v11.8c11.7,0.3,19.1,5.7,20.8,15.1l0.2,1.2l-21,12.2v12.2c0,0,15.3-9.2,21.2-12.3v19.6v2.2v-2l-21.2,12.3v12.2
	c0,0,15.4-9.2,21.3-12.3v7.2c0,26.9-21.3,28.5-21.3,28.5v12c8.8-0.3,33.2-4,33.2-41.7V59.9C354.8,40.6,343.1,30.1,322.5,29.9z
	 M430.3,29.9h-11.6v13h-31.2v-13h-11.6v13h-12.4v11.7h12.4v10.8h11.6V54.7h31.2v10.8h11.6V54.7h12.4V42.9h-12.4V29.9z M251.8,41.6
	h47.6V29.9h-105v11.7h45.4V72h-50.8v11.6h49.3c-1.3,6.3-10.5,41.3-49.3,54.5v11.8c23.8-4.8,45.8-25,56.6-48.7
	c12.3,26.6,37.3,44.2,59,48.7v-12c-39.5-13.4-50.5-49.3-51.8-54.3h51.9V71.9h-53V41.6z"/>
</svg>
